<?xml version="1.0" encoding="utf-8"?>
<!-- Generator: Adobe Illustrator 23.0.3, SVG Export Plug-In . SVG Version: 6.00 Build 0)  -->
<svg version="1.1" id="Layer_1" xmlns="http://www.w3.org/2000/svg" xmlns:xlink="http://www.w3.org/1999/xlink" x="0px" y="0px"
	 viewBox="0 0 500 750" style="enable-background:new 0 0 500 750;" xml:space="preserve">
<style type="text/css">
	.st0{stroke:#FFFFFF;stroke-width:5;stroke-miterlimit:10;}
	.st1{fill:#474747;}
</style>
<rect class="st0" width="500" height="750"/>
<path class="st1" d="M45.1,517.3c1.4-4,2.7-8,4.4-11.9c6.9-15.6,18.2-27.4,32.5-36.4c13.6-8.6,28.4-14.1,43.8-18.2
	c9.3-2.5,18.9-4.1,27.9-7.3c20.2-7.2,35.5-19.9,41.9-41.3c0.3-1.1,0.6-1.9-0.5-3c-17.7-16.8-29.9-37.1-38.7-59.6
	c-0.7-1.8-1.8-3.6-3-5.1c-7.8-9.4-14.4-19.5-17.6-31.5c-1.7-6.3-2.2-12.6-0.5-19c1.4-5.2,4.2-9.5,8.4-12.9c1-0.8,1.5-1.6,1.6-2.9
	c2.3-27.5,11.4-52.3,29.3-73.5c16.2-19.3,36.5-31.9,61.5-36.2c4-0.7,8-1,12-1.4c1.7,0,3.3,0,5,0c3.9,0.4,7.9,0.7,11.8,1.2
	c17.4,2.4,32.9,9.2,46.7,20c22.7,17.8,36.6,41.2,43,69c1.8,7.8,2.4,15.9,3.6,23.9c0.1,0.9,0.3,1.9,0.8,2.5c6.6,7.5,7.7,16.3,6,25.7
	c-2,10.7-7.1,20-13.3,28.7c-1,1.4-1.8,3-2.4,4.6c-7,20.2-16.7,38.9-30.5,55.3c-4.1,4.8-8.7,9.2-13.2,13.7c-0.9,0.9-1.2,1.6-0.8,2.9
	c4.1,14.3,12.9,24.9,25.1,33.1c9.3,6.3,19.6,9.4,30.4,11.6c15.2,3.1,30.2,7,44.5,13.3c15.2,6.8,28.6,15.9,38.5,29.6
	c5.4,7.5,9.3,15.7,11.7,24.6c0.9,3.4-0.7,6.4-3.8,7.3c-3.1,0.9-6.2-0.7-7.2-4.1c-5.8-21-19.7-34.9-38.6-44.5
	c-13.1-6.6-27.1-10.5-41.3-13.7c-7.1-1.6-14.5-2.6-21.3-5.1c-25.7-9.5-43.9-26.2-50.2-53.8c-0.6-2.6-0.1-4.8,2-6.6
	c21.8-18.2,35.3-41.8,44.4-68.3c0.7-1.9,1.7-3.8,2.9-5.5c5.4-7.5,10.1-15.4,11.9-24.6c0.9-4.7,1-9.4-1.4-13.8c-0.5-1-1.2-2-2-2.6
	c-2.9-2.2-3.3-5.1-3.5-8.5c-2.1-34.1-14.5-63.2-41.6-85c-17.3-13.9-37.3-20.3-59.5-18.8c-19.1,1.3-35.9,8.8-50.4,21.2
	c-19.9,17.1-31.6,39-36.6,64.5c-1.2,5.9-1.5,12-2.2,18c-0.2,2.1-0.7,4.1-2.6,5.2c-7.9,4.6-9.2,11.7-7.5,19.9
	c1.9,9.8,6.7,18.3,13.1,25.8c4.3,5.1,7.3,10.7,9.8,16.8c7.7,18.8,18.4,35.8,33.1,50c1.1,1.1,2.2,2.1,3.4,3.1
	c2.2,1.9,2.8,4.2,2.2,6.9c-2.8,13.1-8.8,24.6-18.4,34.1c-11.7,11.6-25.7,19.1-41.8,22.6c-14.7,3.2-29.3,6.9-43.1,12.9
	c-13.1,5.7-25.1,13-34.5,24c-6.4,7.5-10.8,16-13.5,25.5c-1,3.5-3.5,5.1-6.7,4.6c-2.5-0.4-3.7-2.2-4.7-4.3
	C45.1,519,45.1,518.2,45.1,517.3z"/>
</svg>
